# xmcd
#
# Track frame offsets: 
#        150
#        17009
#        39994
#        67527
#        104927
#        141248
#        189801
#        235472
#        261186
#        291418
#
# Disc length: 4121 seconds
#
# Revision: 4
# Processed by: cddbd v1.5.2PL0 Copyright (c) Steve Scherf et al.
# Submitted via: ExactAudioCopyFreeDBPlugin 1.0
#
DISCID=8d10170a
DTITLE=Chris Rea - The Road to Hell and Back
DYEAR=2006
DGENRE=Blues Rock
TTITLE0=Jazzy Blue
TTITLE1=Josephine
TTITLE2=Stony Road
TTITLE3=Stainsby Girls
TTITLE4=Somewhere Between Highway 61 and 49
TTITLE5=I Can Hear Your Heart Beat
TTITLE6=The Road to Hell
TTITLE7=On the Beach
TTITLE8=Let's Dance
TTITLE9=Fool (If You Think It's Over)
EXTD=
EXTT0=
EXTT1=
EXTT2=
EXTT3=
EXTT4=
EXTT5=
EXTT6=
EXTT7=
EXTT8=
EXTT9=
PLAYORDER=
